<svg id="Layer_1" data-name="Layer 1" xmlns="http://www.w3.org/2000/svg" viewBox="0 0 122.88 121.83"><defs><style>.cls-1,.cls-2{fill-rule:evenodd;}.cls-2{fill:red;}.cls-3{fill:#fff;}</style></defs><title>gif</title><path class="cls-1" d="M102.42,37H81.92a8.52,8.52,0,0,1-8.85-8.7V7.53H21a.58.58,0,0,0-.41.18.45.45,0,0,0-.18.42V113.71a.7.7,0,0,0,.18.41.51.51,0,0,0,.41.18h80.84c.18,0,.17-.09.26-.18s.34-.28.34-.41V37Zm7.47,79.08a5.77,5.77,0,0,1-5.76,5.76H18.66a5.77,5.77,0,0,1-5.76-5.76V5.76a5.7,5.7,0,0,1,1.69-4.07A5.77,5.77,0,0,1,18.66,0H76.9a4.22,4.22,0,0,1,2.46.82l29.75,30.12a2.57,2.57,0,0,1,.78,2.6v82.53ZM80,27.69,79.57,9.63,100.66,31l-18.14-.81A2.4,2.4,0,0,1,80,27.69Z"/><path class="cls-2" d="M6.71,46.28H116.17A6.73,6.73,0,0,1,122.88,53v45.1a6.73,6.73,0,0,1-6.71,6.71H6.71A6.73,6.73,0,0,1,0,98.09V53a6.73,6.73,0,0,1,6.71-6.71Z"/><path class="cls-3" d="M37.45,79.9V73.34h15V86.75a31.11,31.11,0,0,1-7.64,4A25.91,25.91,0,0,1,37,91.83a19.24,19.24,0,0,1-9.15-1.91,13.09,13.09,0,0,1-5.48-5.7,18.65,18.65,0,0,1-1.94-8.68,18.26,18.26,0,0,1,2.12-9,13.87,13.87,0,0,1,6.23-5.78,20.16,20.16,0,0,1,8.63-1.53,23.93,23.93,0,0,1,7.81,1,10.08,10.08,0,0,1,4.3,2.93,13.17,13.17,0,0,1,2.56,5l-9.37,1.69a5.11,5.11,0,0,0-2-2.74,6.09,6.09,0,0,0-3.54-1,6.38,6.38,0,0,0-5.1,2.22q-1.91,2.24-1.9,7,0,5.11,1.92,7.3a6.76,6.76,0,0,0,5.36,2.2,10.32,10.32,0,0,0,3.11-.47A17.31,17.31,0,0,0,44,82.85V79.9ZM60.14,59.78h9.77V91.3H60.14V59.78Zm18.25,0h24.08v6.78H88.16v5.5H100.4v6.39H88.16V91.3H78.39V59.78Z"/></svg>